<?xml version="1.0" encoding="UTF-8" standalone="no" ?>
<!DOCTYPE svg PUBLIC "-//W3C//DTD SVG 1.1//EN" "http://www.w3.org/Graphics/SVG/1.1/DTD/svg11.dtd">
<svg xmlns="http://www.w3.org/2000/svg" xmlns:xlink="http://www.w3.org/1999/xlink" version="1.1" width="1080" height="1080" viewBox="0 0 1080 1080" xml:space="preserve">
<desc>Created with Fabric.js 5.2.4</desc>
<defs>
</defs>
<rect x="0" y="0" width="100%" height="100%" fill="transparent"></rect>
<g transform="matrix(1 0 0 1 540 540)" id="e3d002cd-5a19-413f-a7b9-5dc0175892b8"  >
<rect style="stroke: none; stroke-width: 1; stroke-dasharray: none; stroke-linecap: butt; stroke-dashoffset: 0; stroke-linejoin: miter; stroke-miterlimit: 4; fill: rgb(255,255,255); fill-rule: nonzero; opacity: 1; visibility: hidden;" vector-effect="non-scaling-stroke"  x="-540" y="-540" rx="0" ry="0" width="1080" height="1080" />
</g>
<g transform="matrix(1 0 0 1 540 540)" id="a9590409-f1b7-4cf4-9fcd-363383b2e94f"  >
</g>
<g transform="matrix(1 0 0 1 540 540)" id="pupil_right"  >
<path style="stroke: rgb(0,0,0); stroke-width: 0; stroke-dasharray: none; stroke-linecap: butt; stroke-dashoffset: 0; stroke-linejoin: miter; stroke-miterlimit: 4; fill: rgb(41,37,44); fill-rule: nonzero; opacity: 1;" vector-effect="non-scaling-stroke"  transform=" translate(-88.53, -88.53)" d="M 88.54 0 C 39.64 0 0 39.64 0 88.54 C 0 137.44 39.64 177.07 88.54 177.07 C 137.44 177.07 177.07 137.43 177.07 88.53999999999999 C 177.07 39.64999999999998 137.43 0 88.54 0 Z M 131.21 89.5 C 103.03 89.5 103.08000000000001 45.77 131.21 45.77 C 159.34 45.77 159.35000000000002 89.5 131.21 89.5 Z" stroke-linecap="round" />
</g>
<g transform="matrix(0.64 0 0 0.66 581.58 519.29)" id="5c4ea8fd-bfa8-4038-b819-b9cfbae571a0"  >
<circle style="stroke: rgb(0,0,0); stroke-width: 0; stroke-dasharray: none; stroke-linecap: butt; stroke-dashoffset: 0; stroke-linejoin: miter; stroke-miterlimit: 4; fill: rgb(255,255,255); fill-rule: nonzero; opacity: 1;" vector-effect="non-scaling-stroke"  cx="0" cy="0" r="35" />
</g>
</svg>